<svg xmlns:xlink="http://www.w3.org/1999/xlink" xmlns="http://www.w3.org/2000/svg" viewBox="0 0 395.52 82.16450189484928" height="82.16450189484928" width="395.52"><g><svg viewBox="0 0 549.61044641532 114.1749306379463" height="82.16450189484928" width="395.52"><g><rect width="7.317465921136638" height="114.1749306379463" x="127.61731054356382" y="0" fill="#111111" opacity="1" stroke-width="0px" stroke="#000000" fill-opacity="1" class="rect-i-0" data-fill-palette-color="primary" rx="1%" id="i-0" data-palette-color="#111111" stroke-opacity="0"></rect></g><g transform="matrix(1,0,0,1,154.09044641531995,0.2840172403928918)"><svg viewBox="0 0 395.52 113.60689615716052" height="113.60689615716052" width="395.52"><g id="textblocktransform"><svg viewBox="0 0 395.52 113.60689615716052" height="113.60689615716052" width="395.52" id="textblock"><g><svg viewBox="0 0 395.52 81.1419625485838" height="81.1419625485838" width="395.52"><g transform="matrix(1,0,0,1,0,0)"><svg width="395.52" viewBox="1.7100000381469727 -32.029998779296875 204.9199981689453 42.04084777832031" height="81.1419625485838" data-palette-color="#111111"><path d="M26.73-28.98Q27.56-28.98 27.92-28.6 28.27-28.22 28.27-27.32L28.27-27.32Q28.27-26.42 27.92-26.04 27.56-25.66 26.73-25.66L26.73-25.66 25.34-25.66 25.34-0.9Q25.34-0.24 24.89 0.15 24.44 0.54 23.51 0.54L23.51 0.54Q22.22 0.54 21.46-0.81L21.46-0.81 8.79-23.44 8.69-23.44 8.69-3.32 12.13-3.32Q12.96-3.32 13.32-2.94 13.67-2.56 13.67-1.66L13.67-1.66Q13.67-0.76 13.32-0.38 12.96 0 12.13 0L12.13 0 3.49 0Q2.66 0 2.31-0.38 1.95-0.76 1.95-1.66L1.95-1.66Q1.95-2.56 2.31-2.94 2.66-3.32 3.49-3.32L3.49-3.32 5.13-3.32 5.13-25.66 3.25-25.66Q2.42-25.66 2.06-26.04 1.71-26.42 1.71-27.32L1.71-27.32Q1.71-28.22 2.06-28.6 2.42-28.98 3.25-28.98L3.25-28.98 8.72-28.98Q9.25-28.98 9.58-28.81 9.91-28.64 10.11-28.3L10.11-28.3 21.68-7.59 21.78-7.59 21.78-25.66 18.82-25.66Q17.99-25.66 17.64-26.04 17.29-26.42 17.29-27.32L17.29-27.32Q17.29-28.22 17.64-28.6 17.99-28.98 18.82-28.98L18.82-28.98 26.73-28.98ZM57.2-22.56Q58.03-22.56 58.38-22.18 58.74-21.8 58.74-20.9L58.74-20.9Q58.74-20 58.38-19.62 58.03-19.24 57.2-19.24L57.2-19.24 55.69-19.24 45.7 1.22Q44.11 4.47 42.6 6.32 41.09 8.18 39.19 9.05 37.3 9.91 34.59 10.01L34.59 10.01Q33.74 10.03 33.27 9.58 32.81 9.13 32.81 7.98L32.81 7.98Q32.81 6.4 34.1 6.32L34.1 6.32Q36.45 6.2 37.83 5.54 39.21 4.88 40.37 3.28 41.53 1.68 43.21-1.71L43.21-1.71 34.27-19.24 32.74-19.24Q31.91-19.24 31.55-19.62 31.2-20 31.2-20.9L31.2-20.9Q31.2-21.8 31.55-22.18 31.91-22.56 32.74-22.56L32.74-22.56 41.38-22.56Q42.21-22.56 42.56-22.18 42.92-21.8 42.92-20.9L42.92-20.9Q42.92-20 42.56-19.62 42.21-19.24 41.38-19.24L41.38-19.24 38.25-19.24 45.14-5.52 51.71-19.24 49.53-19.24Q48.7-19.24 48.35-19.62 48-20 48-20.9L48-20.9Q48-21.8 48.35-22.18 48.7-22.56 49.53-22.56L49.53-22.56 57.2-22.56ZM74.95-23.1Q78.29-23.1 80.98-21.58 83.66-20.07 85.19-17.37 86.71-14.67 86.71-11.28L86.71-11.28Q86.71-7.89 85.19-5.19 83.66-2.49 80.98-0.98 78.29 0.54 74.95 0.54L74.95 0.54Q71.6 0.54 68.92-0.98 66.23-2.49 64.7-5.19 63.18-7.89 63.18-11.28L63.18-11.28Q63.18-14.67 64.7-17.37 66.23-20.07 68.92-21.58 71.6-23.1 74.95-23.1L74.95-23.1ZM74.95-19.48Q72.58-19.48 70.78-18.44 68.99-17.41 68.01-15.54 67.04-13.67 67.04-11.28L67.04-11.28Q67.04-8.89 68.01-7.02 68.99-5.15 70.78-4.11 72.58-3.08 74.95-3.08L74.95-3.08Q77.31-3.08 79.11-4.11 80.9-5.15 81.88-7.02 82.86-8.89 82.86-11.28L82.86-11.28Q82.86-13.67 81.88-15.54 80.9-17.41 79.11-18.44 77.31-19.48 74.95-19.48L74.95-19.48ZM96.99-32.03Q97.82-32.03 98.17-31.65 98.53-31.27 98.53-30.37L98.53-30.37 98.53-19.07Q101.68-23.1 106.27-23.1L106.27-23.1Q109.29-23.1 111.69-21.67 114.08-20.24 115.45-17.57 116.81-14.89 116.81-11.28L116.81-11.28Q116.81-7.67 115.45-4.99 114.08-2.32 111.69-0.89 109.29 0.54 106.27 0.54L106.27 0.54Q103.87 0.54 101.85-0.54 99.82-1.61 98.28-3.61L98.28-3.61 98.28-1.66Q98.28-0.76 97.93-0.38 97.58 0 96.75 0L96.75 0 92.86 0Q92.03 0 91.68-0.38 91.33-0.76 91.33-1.66L91.33-1.66Q91.33-2.56 91.68-2.94 92.03-3.32 92.86-3.32L92.86-3.32 94.87-3.32 94.87-28.71 92.38-28.71Q91.55-28.71 91.19-29.09 90.84-29.47 90.84-30.37L90.84-30.37Q90.84-31.27 91.19-31.65 91.55-32.03 92.38-32.03L92.38-32.03 96.99-32.03ZM106.02-19.48Q103.85-19.48 102.15-18.51 100.46-17.53 99.49-15.67 98.53-13.82 98.53-11.28L98.53-11.28Q98.53-8.74 99.49-6.88 100.46-5.03 102.15-4.05 103.85-3.08 106.02-3.08L106.02-3.08Q108.2-3.08 109.76-4.11 111.32-5.15 112.14-7.01 112.96-8.86 112.96-11.28L112.96-11.28Q112.96-13.7 112.14-15.55 111.32-17.41 109.76-18.44 108.2-19.48 106.02-19.48L106.02-19.48ZM134.9-23.1Q138.25-23.1 140.93-21.58 143.62-20.07 145.14-17.37 146.67-14.67 146.67-11.28L146.67-11.28Q146.67-7.89 145.14-5.19 143.62-2.49 140.93-0.98 138.25 0.54 134.9 0.54L134.9 0.54Q131.56 0.54 128.87-0.98 126.19-2.49 124.66-5.19 123.13-7.89 123.13-11.28L123.13-11.28Q123.13-14.67 124.66-17.37 126.19-20.07 128.87-21.58 131.56-23.1 134.9-23.1L134.9-23.1ZM134.9-19.48Q132.53-19.48 130.74-18.44 128.95-17.41 127.97-15.54 126.99-13.67 126.99-11.28L126.99-11.28Q126.99-8.89 127.97-7.02 128.95-5.15 130.74-4.11 132.53-3.08 134.9-3.08L134.9-3.08Q137.27-3.08 139.06-4.11 140.86-5.15 141.84-7.02 142.81-8.89 142.81-11.28L142.81-11.28Q142.81-13.67 141.84-15.54 140.86-17.41 139.06-18.44 137.27-19.48 134.9-19.48L134.9-19.48ZM165.51-32.03Q166.34-32.03 166.7-31.65 167.05-31.27 167.05-30.37L167.05-30.37 167.05-3.32 174.89-3.32Q175.72-3.32 176.07-2.94 176.43-2.56 176.43-1.66L176.43-1.66Q176.43-0.76 176.07-0.38 175.72 0 174.89 0L174.89 0 155.75 0Q154.92 0 154.57-0.38 154.21-0.76 154.21-1.66L154.21-1.66Q154.21-2.56 154.57-2.94 154.92-3.32 155.75-3.32L155.75-3.32 163.39-3.32 163.39-28.71 156.73-28.71Q155.9-28.71 155.54-29.09 155.19-29.47 155.19-30.37L155.19-30.37Q155.19-31.27 155.54-31.65 155.9-32.03 156.73-32.03L156.73-32.03 165.51-32.03ZM191.05-29.52Q192.05-29.52 192.47-29.15 192.88-28.78 192.88-27.93L192.88-27.93 192.88-20.61 202.91-20.61Q203.74-20.61 204.1-20.23 204.45-19.85 204.45-18.95L204.45-18.95Q204.45-18.04 204.1-17.66 203.74-17.29 202.91-17.29L202.91-17.29 192.88-17.29 192.88-8.4Q192.88-5.62 193.84-4.32 194.81-3.03 197.2-3.03L197.2-3.03Q198.84-3.03 200.64-3.69 202.45-4.35 204.14-5.44L204.14-5.44Q204.48-5.69 204.89-5.69L204.89-5.69Q205.72-5.69 206.31-4.57L206.31-4.57Q206.63-3.93 206.63-3.47L206.63-3.47Q206.63-2.69 205.82-2.2L205.82-2.2Q203.92-1 201.57-0.23 199.23 0.54 197.2 0.54L197.2 0.54Q193.05 0.54 191.13-1.62 189.22-3.78 189.22-8.08L189.22-8.08 189.22-17.29 184.26-17.29Q183.43-17.29 183.08-17.66 182.72-18.04 182.72-18.95L182.72-18.95Q182.72-19.85 183.08-20.23 183.43-20.61 184.26-20.61L184.26-20.61 189.22-20.61 189.22-27.93Q189.22-28.78 189.63-29.15 190.05-29.52 191.05-29.52L191.05-29.52Z" opacity="1" transform="matrix(1,0,0,1,0,0)" fill="#111111" class="wordmark-text-0" data-fill-palette-color="primary" id="text-0"></path></svg></g></svg></g><g transform="matrix(1,0,0,1,0,100.29763249920327)"><svg viewBox="0 0 395.52 13.309263657957246" height="13.309263657957246" width="395.52"><g transform="matrix(1,0,0,1,0,0)"><svg width="395.52" viewBox="4.5 -33.400001525878906 1010.2999877929688 34" height="13.309263657957246" data-palette-color="#111111"><path d="M8.65 0L4.5 0 4.5-32.8 23.4-32.8 23.4-29.3 8.65-29.3 8.65-18.2 21.15-18.2 21.15-14.7 8.65-14.7 8.65 0ZM33-18.35L33-18.35 31.45-13.35 41.3-13.35 39.75-18.35Q38.85-21.1 38.05-23.83 37.25-26.55 36.45-29.4L36.45-29.4 36.25-29.4Q35.5-26.55 34.7-23.83 33.9-21.1 33-18.35ZM27.25 0L23 0 34.1-32.8 38.8-32.8 49.9 0 45.45 0 42.35-10 30.4-10 27.25 0ZM63.65 0.6L63.65 0.6Q60.2 0.6 57.25-0.7 54.3-2 52.15-4.25L52.15-4.25 54.65-7.15Q56.4-5.3 58.77-4.17 61.15-3.05 63.7-3.05L63.7-3.05Q66.95-3.05 68.75-4.53 70.55-6 70.55-8.4L70.55-8.4Q70.55-9.65 70.12-10.53 69.7-11.4 68.97-12.03 68.25-12.65 67.25-13.15 66.25-13.65 65.09-14.2L65.09-14.2 60.4-16.25Q59.25-16.75 58.05-17.45 56.84-18.15 55.9-19.15 54.95-20.15 54.34-21.53 53.75-22.9 53.75-24.7L53.75-24.7Q53.75-26.55 54.52-28.15 55.3-29.75 56.67-30.93 58.05-32.1 59.92-32.75 61.8-33.4 64.05-33.4L64.05-33.4Q67-33.4 69.5-32.27 72-31.15 73.75-29.35L73.75-29.35 71.5-26.65Q70-28.1 68.17-28.93 66.34-29.75 64.05-29.75L64.05-29.75Q61.3-29.75 59.62-28.48 57.95-27.2 57.95-24.95L57.95-24.95Q57.95-23.75 58.42-22.93 58.9-22.1 59.7-21.48 60.5-20.85 61.45-20.38 62.4-19.9 63.4-19.5L63.4-19.5 68.05-17.5Q69.45-16.9 70.7-16.13 71.95-15.35 72.84-14.33 73.75-13.3 74.27-11.93 74.8-10.55 74.8-8.75L74.8-8.75Q74.8-6.8 74.02-5.1 73.25-3.4 71.8-2.13 70.34-0.85 68.3-0.13 66.25 0.6 63.65 0.6ZM91.24 0L87.04 0 87.04-29.3 77.14-29.3 77.14-32.8 101.14-32.8 101.14-29.3 91.24-29.3 91.24 0ZM112.44-10.95L100.94-10.95 100.94-14.1 112.44-14.1 112.44-10.95ZM131.34 0.6L131.34 0.6Q128.24 0.6 125.64-0.55 123.04-1.7 121.11-3.88 119.19-6.05 118.11-9.22 117.04-12.4 117.04-16.4L117.04-16.4Q117.04-20.35 118.14-23.5 119.24-26.65 121.19-28.85 123.14-31.05 125.79-32.23 128.44-33.4 131.59-33.4L131.59-33.4Q134.59-33.4 136.86-32.18 139.14-30.95 140.59-29.35L140.59-29.35 138.34-26.65Q137.04-28.05 135.39-28.9 133.74-29.75 131.64-29.75L131.64-29.75Q129.29-29.75 127.39-28.83 125.49-27.9 124.14-26.18 122.79-24.45 122.06-22 121.34-19.55 121.34-16.5L121.34-16.5Q121.34-13.4 122.06-10.93 122.79-8.45 124.09-6.7 125.39-4.95 127.26-4 129.14-3.05 131.49-3.05L131.49-3.05Q133.89-3.05 135.69-4.03 137.49-5 139.09-6.75L139.09-6.75 141.39-4.15Q139.44-1.9 136.99-0.65 134.54 0.6 131.34 0.6ZM151.64 0L147.49 0 147.49-32.8 151.64-32.8 151.64-19.05 166.89-19.05 166.89-32.8 171.09-32.8 171.09 0 166.89 0 166.89-15.45 151.64-15.45 151.64 0ZM185.73-18.35L185.73-18.35 184.18-13.35 194.03-13.35 192.48-18.35Q191.58-21.1 190.78-23.83 189.98-26.55 189.18-29.4L189.18-29.4 188.98-29.4Q188.23-26.55 187.43-23.83 186.63-21.1 185.73-18.35ZM179.98 0L175.73 0 186.83-32.8 191.53-32.8 202.63 0 198.18 0 195.08-10 183.13-10 179.98 0ZM211.43 0L207.28 0 207.28-32.8 217.53-32.8Q220.03-32.8 222.16-32.33 224.28-31.85 225.81-30.75 227.33-29.65 228.18-27.9 229.03-26.15 229.03-23.6L229.03-23.6Q229.03-19.75 227.03-17.45 225.03-15.15 221.63-14.3L221.63-14.3 229.98 0 225.28 0 217.38-13.85 211.43-13.85 211.43 0ZM211.43-29.45L211.43-17.25 216.93-17.25Q220.78-17.25 222.83-18.82 224.88-20.4 224.88-23.6L224.88-23.6Q224.88-26.85 222.83-28.15 220.78-29.45 216.93-29.45L216.93-29.45 211.43-29.45ZM248.63 0.6L248.63 0.6Q245.38 0.6 242.65-0.55 239.93-1.7 237.98-3.88 236.03-6.05 234.93-9.22 233.83-12.4 233.83-16.4L233.83-16.4Q233.83-20.35 234.95-23.5 236.08-26.65 238.08-28.85 240.08-31.05 242.85-32.23 245.63-33.4 248.88-33.4L248.88-33.4Q250.58-33.4 252-33.05 253.43-32.7 254.6-32.13 255.78-31.55 256.7-30.83 257.63-30.1 258.33-29.35L258.33-29.35 256.03-26.65Q254.78-27.95 253.13-28.85 251.48-29.75 248.98-29.75L248.98-29.75Q246.48-29.75 244.48-28.83 242.48-27.9 241.08-26.18 239.68-24.45 238.9-22 238.13-19.55 238.13-16.5L238.13-16.5Q238.13-13.4 238.85-10.93 239.58-8.45 240.95-6.7 242.33-4.95 244.35-4 246.38-3.05 249.03-3.05L249.03-3.05Q250.78-3.05 252.35-3.58 253.93-4.1 254.93-5L254.93-5 254.93-13.55 247.98-13.55 247.98-17 258.73-17 258.73-3.2Q257.13-1.55 254.53-0.48 251.93 0.6 248.63 0.6ZM270.73 0L266.58 0 266.58-32.8 270.73-32.8 270.73 0ZM283.67 0L279.72 0 279.72-32.8 284.02-32.8 295.87-12.2 299.42-5.4 299.62-5.4Q299.47-7.9 299.3-10.58 299.12-13.25 299.12-15.85L299.12-15.85 299.12-32.8 303.07-32.8 303.07 0 298.77 0 286.87-20.65 283.32-27.4 283.12-27.4Q283.32-24.9 283.5-22.33 283.67-19.75 283.67-17.15L283.67-17.15 283.67 0ZM324.97 0.6L324.97 0.6Q321.72 0.6 319-0.55 316.27-1.7 314.32-3.88 312.37-6.05 311.27-9.22 310.17-12.4 310.17-16.4L310.17-16.4Q310.17-20.35 311.3-23.5 312.42-26.65 314.42-28.85 316.42-31.05 319.2-32.23 321.97-33.4 325.22-33.4L325.22-33.4Q326.92-33.4 328.35-33.05 329.77-32.7 330.95-32.13 332.12-31.55 333.05-30.83 333.97-30.1 334.67-29.35L334.67-29.35 332.37-26.65Q331.12-27.95 329.47-28.85 327.82-29.75 325.32-29.75L325.32-29.75Q322.82-29.75 320.82-28.83 318.82-27.9 317.42-26.18 316.02-24.45 315.25-22 314.47-19.55 314.47-16.5L314.47-16.5Q314.47-13.4 315.2-10.93 315.92-8.45 317.3-6.7 318.67-4.95 320.7-4 322.72-3.05 325.37-3.05L325.37-3.05Q327.12-3.05 328.7-3.58 330.27-4.1 331.27-5L331.27-5 331.27-13.55 324.32-13.55 324.32-17 335.07-17 335.07-3.2Q333.47-1.55 330.87-0.48 328.27 0.6 324.97 0.6ZM363.37 0L352.92 0 352.92-32.8 362.67-32.8Q365.17-32.8 367.24-32.35 369.32-31.9 370.79-30.95 372.27-30 373.09-28.48 373.92-26.95 373.92-24.8L373.92-24.8Q373.92-22.35 372.69-20.38 371.47-18.4 369.12-17.65L369.12-17.65 369.12-17.45Q372.12-16.9 373.97-14.95 375.82-13 375.82-9.6L375.82-9.6Q375.82-7.2 374.92-5.4 374.02-3.6 372.37-2.4 370.72-1.2 368.42-0.6 366.12 0 363.37 0L363.37 0ZM357.07-29.5L357.07-18.85 361.92-18.85Q366.12-18.85 367.97-20.3 369.82-21.75 369.82-24.25L369.82-24.25Q369.82-27.1 367.89-28.3 365.97-29.5 362.12-29.5L362.12-29.5 357.07-29.5ZM357.07-15.65L357.07-3.3 362.77-3.3Q367.02-3.3 369.37-4.88 371.72-6.45 371.72-9.75L371.72-9.75Q371.72-12.8 369.42-14.23 367.12-15.65 362.77-15.65L362.77-15.65 357.07-15.65ZM387.96-18.35L387.96-18.35 386.41-13.35 396.26-13.35 394.71-18.35Q393.81-21.1 393.01-23.83 392.21-26.55 391.41-29.4L391.41-29.4 391.21-29.4Q390.46-26.55 389.66-23.83 388.86-21.1 387.96-18.35ZM382.21 0L377.96 0 389.06-32.8 393.76-32.8 404.86 0 400.41 0 397.31-10 385.36-10 382.21 0ZM417.76 0L413.56 0 413.56-29.3 403.66-29.3 403.66-32.8 427.66-32.8 427.66-29.3 417.76-29.3 417.76 0ZM444.56 0L440.36 0 440.36-29.3 430.46-29.3 430.46-32.8 454.46-32.8 454.46-29.3 444.56-29.3 444.56 0ZM479.76 0L460.36 0 460.36-32.8 479.26-32.8 479.26-29.3 464.51-29.3 464.51-19 476.96-19 476.96-15.45 464.51-15.45 464.51-3.55 479.76-3.55 479.76 0ZM490.85 0L486.7 0 486.7-32.8 496.95-32.8Q499.45-32.8 501.58-32.33 503.7-31.85 505.23-30.75 506.75-29.65 507.6-27.9 508.45-26.15 508.45-23.6L508.45-23.6Q508.45-19.75 506.45-17.45 504.45-15.15 501.05-14.3L501.05-14.3 509.4 0 504.7 0 496.8-13.85 490.85-13.85 490.85 0ZM490.85-29.45L490.85-17.25 496.35-17.25Q500.2-17.25 502.25-18.82 504.3-20.4 504.3-23.6L504.3-23.6Q504.3-26.85 502.25-28.15 500.2-29.45 496.35-29.45L496.35-29.45 490.85-29.45ZM519.3 0L515.15 0 515.15-32.8 519.3-32.8 519.3 0ZM547.7 0L528.3 0 528.3-32.8 547.2-32.8 547.2-29.3 532.45-29.3 532.45-19 544.9-19 544.9-15.45 532.45-15.45 532.45-3.55 547.7-3.55 547.7 0ZM563.75 0.6L563.75 0.6Q560.29 0.6 557.35-0.7 554.39-2 552.25-4.25L552.25-4.25 554.75-7.15Q556.5-5.3 558.87-4.17 561.25-3.05 563.79-3.05L563.79-3.05Q567.04-3.05 568.85-4.53 570.64-6 570.64-8.4L570.64-8.4Q570.64-9.65 570.22-10.53 569.79-11.4 569.07-12.03 568.35-12.65 567.35-13.15 566.35-13.65 565.19-14.2L565.19-14.2 560.5-16.25Q559.35-16.75 558.14-17.45 556.94-18.15 556-19.15 555.04-20.15 554.44-21.53 553.85-22.9 553.85-24.7L553.85-24.7Q553.85-26.55 554.62-28.15 555.39-29.75 556.77-30.93 558.14-32.1 560.02-32.75 561.89-33.4 564.14-33.4L564.14-33.4Q567.1-33.4 569.6-32.27 572.1-31.15 573.85-29.35L573.85-29.35 571.6-26.65Q570.1-28.1 568.27-28.93 566.44-29.75 564.14-29.75L564.14-29.75Q561.39-29.75 559.72-28.48 558.04-27.2 558.04-24.95L558.04-24.95Q558.04-23.75 558.52-22.93 559-22.1 559.79-21.48 560.6-20.85 561.54-20.38 562.5-19.9 563.5-19.5L563.5-19.5 568.14-17.5Q569.54-16.9 570.79-16.13 572.04-15.35 572.94-14.33 573.85-13.3 574.37-11.93 574.89-10.55 574.89-8.75L574.89-8.75Q574.89-6.8 574.12-5.1 573.35-3.4 571.89-2.13 570.44-0.85 568.39-0.13 566.35 0.6 563.75 0.6ZM599.89 0L594.94 0 587.99-32.8 592.29-32.8 595.74-14.95Q596.19-12.25 596.69-9.65 597.19-7.05 597.64-4.35L597.64-4.35 597.84-4.35Q598.39-7.05 598.99-9.68 599.59-12.3 600.14-14.95L600.14-14.95 604.69-32.8 608.49-32.8 613.04-14.95Q613.64-12.35 614.24-9.7 614.84-7.05 615.44-4.35L615.44-4.35 615.64-4.35Q616.09-7.05 616.54-9.68 616.99-12.3 617.49-14.95L617.49-14.95 620.94-32.8 624.94-32.8 618.14 0 613.14 0 608.19-19.75Q607.74-21.65 607.36-23.48 606.99-25.3 606.59-27.2L606.59-27.2 606.39-27.2Q605.99-25.3 605.56-23.48 605.14-21.65 604.74-19.75L604.74-19.75 599.89 0ZM634.79 0L630.64 0 630.64-32.8 634.79-32.8 634.79 0ZM662.28 0L643.78 0 643.78-32.8 647.93-32.8 647.93-3.55 662.28-3.55 662.28 0ZM686.58 0L668.08 0 668.08-32.8 672.23-32.8 672.23-3.55 686.58-3.55 686.58 0ZM714.78 0.6L714.78 0.6Q711.68 0.6 709.08-0.55 706.48-1.7 704.55-3.88 702.63-6.05 701.55-9.22 700.48-12.4 700.48-16.4L700.48-16.4Q700.48-20.35 701.58-23.5 702.68-26.65 704.63-28.85 706.58-31.05 709.23-32.23 711.88-33.4 715.03-33.4L715.03-33.4Q718.03-33.4 720.3-32.18 722.58-30.95 724.03-29.35L724.03-29.35 721.78-26.65Q720.48-28.05 718.83-28.9 717.18-29.75 715.08-29.75L715.08-29.75Q712.73-29.75 710.83-28.83 708.93-27.9 707.58-26.18 706.23-24.45 705.5-22 704.78-19.55 704.78-16.5L704.78-16.5Q704.78-13.4 705.5-10.93 706.23-8.45 707.53-6.7 708.83-4.95 710.7-4 712.58-3.05 714.93-3.05L714.93-3.05Q717.33-3.05 719.13-4.03 720.93-5 722.53-6.75L722.53-6.75 724.83-4.15Q722.88-1.9 720.43-0.65 717.98 0.6 714.78 0.6ZM749.42 0L730.92 0 730.92-32.8 735.07-32.8 735.07-3.55 749.42-3.55 749.42 0ZM774.62 0L755.22 0 755.22-32.8 774.12-32.8 774.12-29.3 759.37-29.3 759.37-19 771.82-19 771.82-15.45 759.37-15.45 759.37-3.55 774.62-3.55 774.62 0ZM787.22-18.35L787.22-18.35 785.67-13.35 795.52-13.35 793.97-18.35Q793.07-21.1 792.27-23.83 791.47-26.55 790.67-29.4L790.67-29.4 790.47-29.4Q789.72-26.55 788.92-23.83 788.12-21.1 787.22-18.35ZM781.47 0L777.22 0 788.32-32.8 793.02-32.8 804.12 0 799.67 0 796.57-10 784.62-10 781.47 0ZM812.72 0L808.77 0 808.77-32.8 813.07-32.8 824.92-12.2 828.47-5.4 828.67-5.4Q828.52-7.9 828.34-10.58 828.17-13.25 828.17-15.85L828.17-15.85 828.17-32.8 832.12-32.8 832.12 0 827.82 0 815.92-20.65 812.37-27.4 812.17-27.4Q812.37-24.9 812.54-22.33 812.72-19.75 812.72-17.15L812.72-17.15 812.72 0ZM870.51 0L851.11 0 851.11-32.8 870.01-32.8 870.01-29.3 855.26-29.3 855.26-19 867.71-19 867.71-15.45 855.26-15.45 855.26-3.55 870.51-3.55 870.51 0ZM881.41 0L877.46 0 877.46-32.8 881.76-32.8 893.61-12.2 897.16-5.4 897.36-5.4Q897.21-7.9 897.03-10.58 896.86-13.25 896.86-15.85L896.86-15.85 896.86-32.8 900.81-32.8 900.81 0 896.51 0 884.61-20.65 881.06-27.4 880.86-27.4Q881.06-24.9 881.23-22.33 881.41-19.75 881.41-17.15L881.41-17.15 881.41 0ZM929.21 0L909.81 0 909.81-32.8 928.71-32.8 928.71-29.3 913.96-29.3 913.96-19 926.41-19 926.41-15.45 913.96-15.45 913.96-3.55 929.21-3.55 929.21 0ZM940.3 0L936.15 0 936.15-32.8 946.4-32.8Q948.9-32.8 951.03-32.33 953.15-31.85 954.68-30.75 956.2-29.65 957.05-27.9 957.9-26.15 957.9-23.6L957.9-23.6Q957.9-19.75 955.9-17.45 953.9-15.15 950.5-14.3L950.5-14.3 958.85 0 954.15 0 946.25-13.85 940.3-13.85 940.3 0ZM940.3-29.45L940.3-17.25 945.8-17.25Q949.65-17.25 951.7-18.82 953.75-20.4 953.75-23.6L953.75-23.6Q953.75-26.85 951.7-28.15 949.65-29.45 945.8-29.45L945.8-29.45 940.3-29.45ZM977.5 0.6L977.5 0.6Q974.25 0.6 971.53-0.55 968.8-1.7 966.85-3.88 964.9-6.05 963.8-9.22 962.7-12.4 962.7-16.4L962.7-16.4Q962.7-20.35 963.83-23.5 964.95-26.65 966.95-28.85 968.95-31.05 971.73-32.23 974.5-33.4 977.75-33.4L977.75-33.4Q979.45-33.4 980.88-33.05 982.3-32.7 983.48-32.13 984.65-31.55 985.58-30.83 986.5-30.1 987.2-29.35L987.2-29.35 984.9-26.65Q983.65-27.95 982-28.85 980.35-29.75 977.85-29.75L977.85-29.75Q975.35-29.75 973.35-28.83 971.35-27.9 969.95-26.18 968.55-24.45 967.78-22 967-19.55 967-16.5L967-16.5Q967-13.4 967.73-10.93 968.45-8.45 969.83-6.7 971.2-4.95 973.23-4 975.25-3.05 977.9-3.05L977.9-3.05Q979.65-3.05 981.23-3.58 982.8-4.1 983.8-5L983.8-5 983.8-13.55 976.85-13.55 976.85-17 987.6-17 987.6-3.2Q986-1.55 983.4-0.48 980.8 0.6 977.5 0.6ZM1004.95 0L1000.75 0 1000.75-12.7 990.9-32.8 995.35-32.8 999.6-23.55Q1000.4-21.75 1001.15-20 1001.9-18.25 1002.75-16.4L1002.75-16.4 1002.95-16.4Q1003.8-18.25 1004.65-20 1005.5-21.75 1006.25-23.55L1006.25-23.55 1010.45-32.8 1014.8-32.8 1004.95-12.7 1004.95 0Z" opacity="1" transform="matrix(1,0,0,1,0,0)" fill="#111111" class="slogan-text-1" data-fill-palette-color="secondary" id="text-1"></path></svg></g></svg></g></svg></g></svg></g><g transform="matrix(1,0,0,1,0,0.2840172403928847)"><svg viewBox="0 0 108.46164059294435 113.60689615716053" height="113.60689615716053" width="108.46164059294435"><g><svg xmlns="http://www.w3.org/2000/svg" xml:space="preserve" version="1.0" viewBox="0 0 95.47100067138672 100" x="0" y="0" height="113.60689615716053" width="108.46164059294435" class="icon-icon-0" data-fill-palette-color="accent" id="icon-0"><path d="M47.735 0c-0.083 2.825-1.738 13.412-19.799 30.934C10.554 47.797 2.439 49.824 0 50c2.439 0.178 10.554 2.204 27.936 19.066C45.997 86.589 47.652 97.177 47.735 100c0.083-2.823 1.739-13.411 19.798-30.934C84.917 52.204 93.031 50.178 95.471 50c-2.439-0.176-10.554-2.203-27.938-19.066C49.475 13.412 47.819 2.825 47.735 0" fill="#111111" data-fill-palette-color="accent"></path></svg></g></svg></g></svg></g><defs></defs></svg>